<?xml version="1.0" encoding="UTF-8"?>
<svg id="Layer_1" data-name="Layer 1" xmlns="http://www.w3.org/2000/svg" version="1.1" viewBox="0 0 219.69 62.14">
  <defs>
    <style>
      .cls-1 {
        fill: #1c75bc;
      }

      .cls-1, .cls-2 {
        stroke-width: 0px;
      }

      .cls-2 {
        fill: #a7a9ac;
      }
    </style>
  </defs>
  <g>
    <polygon class="cls-2" points="19.56 23.5 27.66 23.5 27.66 31.58 34.42 31.58 34.42 16.74 19.56 16.74 19.56 23.5"/>
    <rect class="cls-1" x="19.57" y="16.75" width="22.94" height="6.75"/>
    <rect class="cls-1" x="27.66" y="8.65" width="6.75" height="22.94"/>
    <polygon class="cls-2" points="27.66 33.84 27.66 41.17 9.99 41.17 9.99 23.5 17.31 23.5 17.31 16.74 3.24 16.74 3.24 47.92 34.42 47.92 34.42 33.84 27.66 33.84"/>
  </g>
  <g>
    <path class="cls-1" d="M63.57,45.65c-2.95,0-5.37-1.1-7.25-3.05-2.71-2.81-2.64-6.29-2.64-11.09s-.07-8.28,2.64-11.09c1.88-1.96,4.3-3.05,7.25-3.05,5.02,0,8.95,2.97,9.89,8.79h-5.33c-.53-2.22-1.88-3.94-4.53-3.94-1.43,0-2.6.54-3.36,1.45-1.02,1.17-1.32,2.5-1.32,7.85s.3,6.68,1.32,7.85c.76.9,1.93,1.45,3.36,1.45,2.64,0,4-1.72,4.53-3.94h5.33c-.94,5.82-4.9,8.79-9.89,8.79h0Z"/>
    <path class="cls-1" d="M88.29,30.61c-.76-.78-1.39-1.21-2.6-1.21-1.5,0-3.17,1.17-3.17,3.75v12.26h-4.9v-20.36h4.79v1.96c.94-1.17,2.84-2.19,4.94-2.19,1.93,0,3.29.51,4.64,1.92l-3.7,3.87Z"/>
    <path class="cls-1" d="M97.47,36.82c0,2.62,1.55,4.54,4.3,4.54,2.15,0,3.21-.63,4.45-1.92l2.98,3.01c-2,2.07-3.92,3.21-7.48,3.21-4.65,0-9.1-2.19-9.1-10.43,0-6.64,3.47-10.39,8.57-10.39,5.48,0,8.57,4.14,8.57,9.73v2.26h-12.31.01ZM104.49,31.16c-.53-1.21-1.63-2.11-3.29-2.11s-2.76.9-3.29,2.11c-.3.74-.42,1.29-.45,2.19h7.48c-.04-.9-.15-1.45-.45-2.19Z"/>
    <path class="cls-1" d="M125.17,45.41v-1.92c-1.36,1.57-2.79,2.15-4.87,2.15-1.93,0-3.74-.71-4.83-1.83-1.97-2.03-2-5.55-2-8.59s.04-6.52,2-8.55c1.1-1.14,2.87-1.83,4.79-1.83s3.51.54,4.79,2.03v-9.26h4.9v27.81h-4.79.01s0-.01,0-.01ZM121.7,29.4c-2.95,0-3.32,2.5-3.32,5.82s.38,5.86,3.32,5.86,3.36-2.54,3.36-5.86-.42-5.82-3.36-5.82Z"/>
    <path class="cls-1" d="M139.33,36.82c0,2.62,1.55,4.54,4.3,4.54,2.15,0,3.21-.63,4.45-1.92l2.98,3.01c-2,2.07-3.92,3.21-7.48,3.21-4.65,0-9.1-2.19-9.1-10.43,0-6.64,3.47-10.39,8.57-10.39,5.48,0,8.57,4.14,8.57,9.73v2.26h-12.31.01ZM146.35,31.16c-.53-1.21-1.63-2.11-3.29-2.11s-2.76.9-3.29,2.11c-.3.74-.42,1.29-.45,2.19h7.48c-.04-.9-.15-1.45-.45-2.19h0Z"/>
    <path class="cls-1" d="M167.6,45.41v-12.31c0-2.77-1.7-3.71-3.25-3.71s-3.29.94-3.29,3.71v12.31h-4.9v-20.36h4.79v1.87c1.28-1.4,3.09-2.11,4.9-2.11,1.97,0,3.55.66,4.64,1.79,1.59,1.64,2,3.55,2,5.78v13h-4.9.01s0,.01,0,.01Z"/>
    <path class="cls-1" d="M183.94,45.41c-4,0-5.7-2.93-5.7-5.82v-10.08h-2.08v-3.87h2.08v-6.01h4.9v6.01h3.47v3.87h-3.47v9.77c0,1.17.53,1.83,1.7,1.83h1.77v4.3h-2.68.01Z"/>
    <path class="cls-1" d="M191.01,21.58v-4.14h5.02v4.14h-5.02ZM191.08,45.41v-20.36h4.9v20.36h-4.9Z"/>
    <path class="cls-1" d="M211.54,45.41v-1.76c-1.32,1.37-2.57,1.96-4.83,1.96s-3.85-.58-5.02-1.8c-1.05-1.14-1.63-2.77-1.63-4.57,0-3.25,2.15-5.9,6.72-5.9h4.65v-1.01c0-2.22-1.05-3.21-3.67-3.21-1.88,0-2.76.47-3.78,1.68l-3.13-3.16c1.93-2.19,3.81-2.81,7.1-2.81,5.51,0,8.39,2.42,8.39,7.19v13.39h-4.79s0,0,0,0ZM211.43,36.82h-3.89c-1.77,0-2.76.86-2.76,2.3s.9,2.34,2.83,2.34c1.36,0,2.23-.11,3.09-.97.53-.51.72-1.33.72-2.58v-1.1h.01Z"/>
  </g>
</svg>